<svg xmlns="http://www.w3.org/2000/svg" width="110" height="16" fill="none" viewBox="0 0 110 16">
  <path fill="#5A5A5D" d="M.808 12 6.36 1.28v.576H.056V.72H7.56v.992L2.264 12H.808Zm13.366 0V.72h3.744c1.248 0 2.304.219 3.168.656a4.36 4.36 0 0 1 1.968 1.904c.448.832.672 1.856.672 3.072 0 1.205-.224 2.23-.672 3.072a4.448 4.448 0 0 1-1.968 1.92c-.864.437-1.92.656-3.168.656h-3.744Zm1.328-1.136h2.32c1.536 0 2.677-.373 3.424-1.12.746-.757 1.12-1.888 1.12-3.392 0-1.515-.374-2.645-1.12-3.392-.747-.747-1.888-1.12-3.424-1.12h-2.32v9.024Zm13.537 1.28c-.715 0-1.339-.165-1.872-.496-.534-.341-.95-.821-1.248-1.44-.288-.619-.432-1.36-.432-2.224 0-.875.144-1.621.432-2.24.298-.619.714-1.093 1.248-1.424.533-.33 1.157-.496 1.872-.496.725 0 1.35.187 1.872.56a2.55 2.55 0 0 1 1.056 1.488h-.192l.176-1.904h1.248l-.096.944c-.022.31-.032.613-.032.912V12h-1.296v-1.888h.176a2.55 2.55 0 0 1-1.056 1.488c-.534.363-1.152.544-1.856.544Zm.256-1.056c.768 0 1.376-.261 1.824-.784.448-.533.672-1.307.672-2.32 0-1.024-.224-1.797-.672-2.32-.448-.533-1.056-.8-1.824-.8-.758 0-1.366.267-1.824.8-.448.523-.672 1.296-.672 2.32 0 1.013.224 1.787.672 2.32.458.523 1.066.784 1.824.784Zm5.883 4.544-.304-1.072a6.081 6.081 0 0 0 1.248-.416 2.37 2.37 0 0 0 .848-.608c.224-.256.416-.576.576-.96l.416-.944-.032.544-3.504-8.208h1.408l2.896 7.056h-.416l2.864-7.056h1.36l-3.712 8.704a5.945 5.945 0 0 1-.704 1.28 3.705 3.705 0 0 1-.832.848c-.288.224-.608.4-.96.528s-.736.23-1.152.304Zm12.48-2.752h-1.12L50.73.032h1.12L47.658 12.88Zm13.166-.736c-1.365 0-2.421-.48-3.168-1.44-.736-.97-1.104-2.325-1.104-4.064 0-1.301.187-2.4.56-3.296.374-.907.907-1.595 1.6-2.064.694-.47 1.53-.704 2.512-.704.587 0 1.179.123 1.776.368.598.235 1.088.565 1.472.992l-.48 1.024a3.852 3.852 0 0 0-1.328-.912 3.714 3.714 0 0 0-1.456-.304c-1.088 0-1.925.39-2.512 1.168-.576.768-.864 1.925-.864 3.472v1.488h-.144c.075-.608.256-1.13.544-1.568.299-.448.688-.79 1.168-1.024a3.594 3.594 0 0 1 1.6-.352c.683 0 1.286.15 1.808.448.523.299.934.72 1.232 1.264.299.533.448 1.147.448 1.84 0 .704-.154 1.333-.464 1.888-.31.555-.741.992-1.296 1.312-.554.31-1.19.464-1.904.464Zm-.096-1.12c.49 0 .923-.101 1.296-.304a2.18 2.18 0 0 0 .88-.88c.214-.384.32-.821.32-1.312 0-.49-.106-.923-.32-1.296a2.184 2.184 0 0 0-.88-.88c-.373-.213-.805-.32-1.296-.32-.49 0-.922.107-1.296.32a2.323 2.323 0 0 0-.88.88c-.202.373-.304.805-.304 1.296 0 .49.102.928.304 1.312.214.373.507.667.88.88.374.203.806.304 1.296.304ZM70.83 12V.72h1.04l7.232 9.6h-.368V.72h1.232V12h-1.024L71.71 2.4h.352V12H70.83Zm11.809 0V3.968h1.296V12h-1.296Zm-.16-9.856V.688h1.6v1.456h-1.6Zm7.508 13.424a6.85 6.85 0 0 1-1.92-.256 4.893 4.893 0 0 1-1.583-.784l.384-.976c.33.235.656.421.976.56.32.139.65.24.992.304a5.08 5.08 0 0 0 1.088.112c.789 0 1.386-.208 1.791-.624.406-.416.608-1.008.608-1.776V9.776h.16a2.62 2.62 0 0 1-1.056 1.504c-.533.363-1.157.544-1.872.544-.736 0-1.376-.16-1.92-.48a3.369 3.369 0 0 1-1.248-1.392c-.287-.608-.431-1.323-.431-2.144 0-.81.144-1.515.431-2.112a3.26 3.26 0 0 1 1.248-1.376c.544-.33 1.184-.496 1.92-.496.726 0 1.35.181 1.872.544.534.363.886.864 1.056 1.504l-.16-.16.145-1.744h1.263a14.357 14.357 0 0 0-.128 1.856v6.128c0 1.195-.309 2.096-.927 2.704-.609.608-1.505.912-2.689.912Zm-.191-4.8c.778 0 1.391-.256 1.84-.768.448-.523.672-1.253.672-2.192 0-.939-.225-1.664-.673-2.176-.448-.512-1.06-.768-1.84-.768-.767 0-1.38.256-1.84.768-.458.512-.688 1.237-.688 2.176 0 .939.23 1.67.689 2.192.458.512 1.072.768 1.84.768ZM96.092 12V.224h1.296v5.52h-.208c.224-.63.597-1.104 1.12-1.424.534-.33 1.147-.496 1.84-.496.96 0 1.675.261 2.144.784.469.512.704 1.29.704 2.336V12h-1.296V7.024c0-.747-.149-1.29-.448-1.632-.288-.341-.757-.512-1.408-.512-.746 0-1.344.23-1.792.688-.437.459-.656 1.061-.656 1.808V12h-1.296Zm12.223.144c-.789 0-1.392-.224-1.808-.672-.416-.459-.624-1.147-.624-2.064V4.976h-1.568V3.968h1.568V1.776l1.296-.368v2.56h2.304v1.008h-2.304v4.288c0 .64.107 1.099.32 1.376.224.267.555.4.992.4.203 0 .384-.016.544-.048.16-.043.304-.09.432-.144v1.088a2.229 2.229 0 0 1-.544.144 2.942 2.942 0 0 1-.608.064Z"/>
</svg>
